<?xml version="1.0" standalone="no"?>
<!DOCTYPE svg PUBLIC "-//W3C//DTD SVG 20010904//EN"
 "http://www.w3.org/TR/2001/REC-SVG-20010904/DTD/svg10.dtd">
<svg version="1.0" xmlns="http://www.w3.org/2000/svg"
 width="384.000000pt" height="390.000000pt" viewBox="0 0 384.000000 390.000000"
 preserveAspectRatio="xMidYMid meet">

<g transform="translate(0.000000,390.000000) scale(0.100000,-0.100000)"
fill="#000000" stroke="none">
<path d="M1723 2629 c-412 -48 -844 -246 -1263 -577 -99 -79 -460 -433 -460
-452 0 -19 361 -373 460 -452 425 -336 850 -529 1275 -578 524 -59 1092 140
1645 578 99 79 460 433 460 452 0 19 -361 373 -460 452 -555 440 -1127 639
-1657 577z m-187 -330 c19 -38 30 -50 42 -46 9 3 58 21 107 39 86 31 96 33
235 33 132 -1 152 -3 225 -28 224 -78 394 -248 472 -472 25 -73 27 -92 27
-225 0 -133 -2 -152 -27 -225 -78 -224 -248 -394 -472 -472 -73 -25 -92 -27
-225 -27 -133 0 -152 2 -225 27 -226 79 -396 249 -471 472 -35 105 -43 265
-20 375 9 41 12 77 8 81 -9 8 -102 39 -118 39 -8 0 -20 -32 -31 -77 -23 -100
-23 -290 1 -386 36 -150 112 -292 213 -399 31 -32 52 -58 48 -58 -14 0 -181
97 -265 153 -160 107 -301 222 -491 400 l-104 98 105 99 c330 314 573 491 825
605 55 25 103 45 107 45 4 0 19 -23 34 -51z m986 -30 c215 -108 442 -280 729
-552 l124 -117 -102 -95 c-261 -245 -509 -430 -720 -539 -51 -26 -50 -20 10
42 101 107 177 248 214 399 24 100 22 304 -5 405 -44 164 -125 301 -250 421
-38 37 -68 67 -66 67 3 0 32 -14 66 -31z"/>
<path d="M1758 2077 c-37 -13 -71 -26 -74 -30 -4 -3 46 -104 110 -223 65 -118
116 -218 114 -220 -3 -2 -107 31 -232 72 -173 58 -230 74 -239 65 -8 -8 -12
-55 -12 -139 0 -109 4 -135 23 -184 50 -125 165 -240 290 -290 49 -19 75 -23
182 -23 107 0 133 4 182 23 125 50 240 165 290 290 19 49 23 75 23 182 0 107
-4 133 -23 182 -50 125 -166 241 -290 289 -43 17 -83 23 -167 26 -95 3 -119 0
-177 -20z"/>
</g>
</svg>
