<?xml version="1.0" standalone="no"?>
<!DOCTYPE svg PUBLIC "-//W3C//DTD SVG 20010904//EN"
 "http://www.w3.org/TR/2001/REC-SVG-20010904/DTD/svg10.dtd">
<svg version="1.0" xmlns="http://www.w3.org/2000/svg"
 width="399.000000pt" height="390.000000pt" viewBox="0 0 399.000000 390.000000"
 preserveAspectRatio="xMidYMid meet">

<g transform="translate(0.000000,390.000000) scale(0.100000,-0.100000)"
fill="#000000" stroke="none">
<path d="M3761 3625 l-213 -256 47 -54 c26 -30 48 -55 50 -55 1 0 67 120 145
268 79 147 154 286 167 310 14 23 23 42 21 42 -3 0 -101 -115 -217 -255z"/>
<path d="M3230 3268 l-195 -69 -260 -490 c-143 -270 -260 -494 -260 -500 0
-13 348 -220 356 -211 9 11 561 1334 557 1337 -2 2 -91 -28 -198 -67z"/>
<path d="M3412 3094 c-46 -114 -82 -208 -80 -209 14 -14 482 -175 488 -169 4
5 13 50 20 101 l13 92 -74 83 c-41 46 -118 134 -173 196 -54 61 -102 112 -105
112 -3 0 -43 -93 -89 -206z"/>
<path d="M2625 2625 c-5 -2 -54 -13 -107 -25 l-97 -21 -66 -124 c-36 -68 -65
-126 -65 -129 0 -10 154 -86 160 -79 15 18 199 383 192 382 -4 0 -11 -2 -17
-4z"/>
<path d="M1590 2244 c-217 -6 -409 -12 -426 -13 -30 -1 -40 -14 -199 -262 -92
-144 -163 -265 -158 -269 15 -13 1212 -322 1228 -317 11 5 779 500 793 512 2
2 -129 84 -291 184 l-294 181 -129 -2 c-71 0 -307 -7 -524 -14z"/>
<path d="M402 1683 c-214 -302 -388 -550 -386 -552 1 -2 124 76 272 173 l270
177 231 369 c127 203 231 372 231 375 0 3 -51 5 -114 5 l-115 0 -389 -547z"/>
<path d="M2387 1507 c-163 -105 -296 -195 -294 -199 2 -8 1147 -1208 1152
-1208 2 0 -13 48 -34 108 -21 59 -145 415 -276 792 -131 377 -241 688 -245
692 -3 5 -140 -79 -303 -185z"/>
<path d="M766 1582 c-13 -82 -195 -1566 -193 -1569 4 -4 881 1397 885 1414 2
7 1 13 -3 13 -7 0 -652 168 -672 175 -7 2 -14 -11 -17 -33z"/>
</g>
</svg>
